<svg xmlns="http://www.w3.org/2000/svg" class="icon" width="24px" height="24.00px" viewBox="0 0 1024 1024"><path d="M579.24 744.911c-25.843 0-48.607 0.648-67.321 2.43-18.714-1.782-41.397-2.43-67.16-2.43-74.288 0-140.475 28.193-140.475 48.932 0 19.93 54.926 17.66 129.053 16.932 29.812-0.324 57.276-3.403 79.635-8.264 21.955 4.618 48.689 7.535 77.61 7.859 74.127 0.729 128.972 2.997 128.972-16.851 0.081-20.658-66.025-48.608-140.313-48.608z" fill="#ffffff" /><path d="M764.111 540.354c-13.934-37.508-29.164-74.531-45.529-110.987 0.73-8.83 1.134-17.823 1.134-26.896 0-139.666-71.534-252.922-207.392-252.922-135.94 0-207.392 113.256-207.392 252.922 0 8.506 0.324 16.932 1.053 25.195-10.694 23.737-28.274 64.486-46.177 112.931-28.598 77.53-29.894 147.687-19.93 152.871 7.049 3.727 32.892-23.412 57.52-67.321 16.283 103.453 85.063 180.74 214.926 180.74 129.54 0 198.238-76.963 214.765-179.93 24.465 43.018 49.984 69.509 57.033 65.863 9.964-5.023 8.668-75.017-20.01-152.466z" fill="#ffffff" /><path d="M456.83 232.344c-20.172 0.405-36.05 24.142-35.483 53.064 0.567 28.921 17.337 52.09 37.509 51.686s36.05-24.142 35.483-53.064c-0.567-28.921-17.336-52.09-37.509-51.686z m111.474 0.567c-20.415-0.405-37.428 22.603-37.995 51.362-0.567 28.76 15.473 52.416 35.888 52.82 20.416 0.406 37.428-22.602 37.995-51.361 0.567-28.76-15.554-52.416-35.888-52.82z m76.557 231.94c-39.453 6.886-85.145 10.774-133.914 10.774-47.798 0-92.679-3.807-131.565-10.37-26.896 33.378-29.002 82.39-29.002 137.155 0 100.456 56.79 181.874 161.944 181.874s161.944-81.418 161.944-181.874c0-54.926-2.106-104.182-29.407-137.56zM512.324 354.187c-70.643 0-127.838 14.178-127.838 25.6 0 11.342 74.856 42.613 127.838 42.613 53.063 0 127.838-32 127.838-42.613 0-10.693-57.195-25.6-127.838-25.6z" fill="#ffffff" /><path d="M718.582 429.367c0-0.243 0-0.486 0.081-0.81-51.929 17.175-125.164 27.868-206.258 27.868-81.337 0-154.815-10.774-206.744-28.03-11.018 24.628-21.55 49.499-31.433 74.613 32 10.612 67.888 19.119 106.531 25.033v95.108s27.383 5.104 53.226 6.157c18.309 0.73 37.752-2.349 37.752-2.349v-89.924c13.367 0.567 26.977 0.972 40.75 0.972 89.275 0 171.584-12.88 237.528-34.673-10.045-24.952-20.496-49.58-31.433-73.965zM468.74 268.881c-8.911 0-16.121 9.316-16.121 20.82s7.21 20.82 16.121 20.82c8.912 0 16.122-9.316 16.122-20.82s-7.21-20.82-16.122-20.82z m118.44 13.286s-6.48-7.777-22.764-5.67c-16.04 2.025-22.278 11.341-23.493 12.313 0 0-3.808 5.266-1.135 8.506 2.674 3.241 7.616-1.863 7.616-1.863s7.453-9.154 17.012-9.478c9.64-0.324 15.15 3.807 15.15 3.807s4.698 3.484 7.615 0c2.835-3.483 0-7.615 0-7.615z" fill="#ffffff" /></svg>
