<svg class="icon" width="24px" height="24px" viewBox="0 0 1024 1024" xmlns="http://www.w3.org/2000/svg"><path d="M792.215 440.255c-0.011 0-0.033 0.011-0.045 0.011 0.325-10.3 0.571-20.67 0.571-31.262 0-172.076-81.234-344.993-281.001-345.004-199.756 0.011-281.002 172.928-281.002 345.004 0 10.593 0.258 20.961 0.582 31.262-0.022 0-0.033-0.01-0.045-0.01-13.873 33.938-50.745 122.282-70.261 185.064-38.081 122.62-25.753 173.353-16.348 174.484 20.166 2.441 78.503-92.297 78.503-92.297 0 54.877 28.284 126.426 89.397 178.123-23.424 6.998-50.006 17.21-68.918 31.173-16.18 11.936-14.175 24.118-11.253 29.045 12.798 21.599 219.564 13.783 279.3 7.054 59.736 6.73 266.602 14.545 279.412-7.054 2.91-4.927 4.926-17.11-11.253-29.045-18.912-13.963-45.494-24.175-68.93-31.173 61.114-51.697 89.409-123.246 89.409-178.123 0 0 58.337 94.738 78.492 92.297 9.405-1.13 21.677-53.007-16.36-174.484-19.191-61.348-56.489-151.126-70.25-185.065" fill="#000000" /></svg>
